<svg width="16" height="10" viewBox="0 0 16 10" fill="none" xmlns="http://www.w3.org/2000/svg">
<path d="M15.4577 5.84118C15.4334 5.49044 15.3842 5.10784 15.3118 4.70382C15.2388 4.29677 15.1447 3.91198 15.0321 3.56027C14.9156 3.19676 14.7576 2.83779 14.5619 2.49378C14.359 2.13672 14.1206 1.82581 13.8531 1.56996C13.5734 1.30231 13.2309 1.08711 12.8348 0.930145C12.4401 0.774002 12.0027 0.694901 11.5349 0.694901C11.3511 0.694901 11.1734 0.770294 10.8302 0.993729C10.619 1.13147 10.372 1.29077 10.0962 1.46697C9.8604 1.6172 9.54097 1.75797 9.14643 1.88541C8.76149 2.00997 8.37065 2.07314 7.98476 2.07314C7.59914 2.07314 7.2083 2.00997 6.82309 1.88541C6.42896 1.7581 6.10939 1.61734 5.87401 1.4671C5.60086 1.29256 5.35367 1.13326 5.1393 0.993592C4.79639 0.770157 4.61868 0.694763 4.43494 0.694763C3.96692 0.694763 3.52966 0.774002 3.13512 0.930283C2.73933 1.08698 2.3967 1.30217 2.11668 1.5701C1.84917 1.82608 1.61076 2.13686 1.40807 2.49378C1.21265 2.83779 1.05444 3.19663 0.937988 3.56041C0.825516 3.91211 0.731445 4.29677 0.658386 4.70382C0.585876 5.10729 0.53685 5.49003 0.512543 5.84159C0.488647 6.18532 0.476562 6.54307 0.476562 6.90452C0.476562 7.84412 0.775253 8.60479 1.36426 9.16578C1.94598 9.71935 2.71558 10.0001 3.65175 10.0001H12.3189C13.2548 10.0001 14.0244 9.71935 14.6062 9.16578C15.1954 8.6052 15.4941 7.84426 15.4941 6.90438C15.4939 6.54169 15.4817 6.18395 15.4577 5.84118ZM13.8789 8.40154C13.4945 8.76739 12.9842 8.94523 12.3187 8.94523H3.65175C2.98611 8.94523 2.4758 8.76739 2.09155 8.40168C1.71458 8.04284 1.53139 7.55299 1.53139 6.90452C1.53139 6.56724 1.54251 6.23421 1.56476 5.91451C1.58646 5.60085 1.63081 5.25629 1.69659 4.89017C1.76155 4.52858 1.84422 4.18924 1.94255 3.88204C2.0369 3.58747 2.16557 3.29578 2.32515 3.0148C2.47745 2.74701 2.65268 2.51726 2.84604 2.33214C3.0269 2.15897 3.25487 2.01724 3.52348 1.91095C3.77191 1.81262 4.0511 1.75879 4.35419 1.75069C4.39113 1.77033 4.45691 1.80782 4.56348 1.87731C4.78032 2.01862 5.03026 2.17984 5.30657 2.35631C5.61803 2.55489 6.0193 2.73424 6.49872 2.88901C6.98885 3.04749 7.48873 3.12796 7.9849 3.12796C8.48107 3.12796 8.98108 3.04749 9.47093 2.88915C9.95076 2.7341 10.3519 2.55489 10.6638 2.35603C10.9465 2.17531 11.1895 2.01875 11.4063 1.87731C11.5129 1.80795 11.5787 1.77033 11.6156 1.75069C11.9188 1.75879 12.198 1.81262 12.4466 1.91095C12.7151 2.01724 12.943 2.1591 13.1239 2.33214C13.3172 2.51712 13.4925 2.74687 13.6448 3.01494C13.8045 3.29578 13.9333 3.5876 14.0275 3.8819C14.126 4.18952 14.2088 4.52872 14.2736 4.89003C14.3393 5.25684 14.3837 5.60154 14.4054 5.91465V5.91492C14.4278 6.23339 14.4391 6.56627 14.4392 6.90452C14.4391 7.55312 14.2559 8.04284 13.8789 8.40154Z" fill="black"/>
</svg>
